<?xml version="1.0" encoding="UTF-8" standalone="no"?>
<!-- Created with Inkscape (http://www.inkscape.org/) -->

<svg
   width="512"
   height="512"
   viewBox="0 0 135.46666 135.46667"
   version="1.1"
   id="svg1"
   xml:space="preserve"
   inkscape:version="1.4.2 (ebf0e940, 2025-05-08)"
   sodipodi:docname="reliq.svg"
   xmlns:inkscape="http://www.inkscape.org/namespaces/inkscape"
   xmlns:sodipodi="http://sodipodi.sourceforge.net/DTD/sodipodi-0.dtd"
   xmlns="http://www.w3.org/2000/svg"
   xmlns:svg="http://www.w3.org/2000/svg"><sodipodi:namedview
     id="namedview1"
     pagecolor="#ffffff"
     bordercolor="#000000"
     borderopacity="0.25"
     inkscape:showpageshadow="2"
     inkscape:pageopacity="0.0"
     inkscape:pagecheckerboard="0"
     inkscape:deskcolor="#d1d1d1"
     inkscape:document-units="mm"
     inkscape:zoom="0.37638143"
     inkscape:cx="235.13381"
     inkscape:cy="221.84941"
     inkscape:window-width="1440"
     inkscape:window-height="846"
     inkscape:window-x="209"
     inkscape:window-y="1105"
     inkscape:window-maximized="0"
     inkscape:current-layer="svg1" /><defs
     id="defs1"><linearGradient
       id="swatch4"
       inkscape:swatch="solid"><stop
         style="stop-color:#000000;stop-opacity:1;"
         offset="0"
         id="stop4" /></linearGradient><inkscape:path-effect
       effect="spiro"
       id="path-effect3"
       is_visible="true"
       lpeversion="1" /></defs><path
     style="fill:#000000;fill-opacity:1;stroke:#000000;stroke-width:1.40064;stroke-dasharray:none;stroke-opacity:1"
     d="m 69.167276,7.7430615 23.54657,7.5349565 0.66019,2.078609 1.98055,3.637565 3.741048,2.078609 3.961106,2.338437 1.7605,3.897393 2.64073,7.015305 1.76049,9.35374 0.88025,12.471655 1.10031,9.353739 -0.66019,7.534957 -2.86079,8.054612 0.44011,7.794784 v 10.393037 l -2.8608,8.57427 -4.62129,4.9367 -4.621294,3.37774 -6.16172,2.59827 -7.92221,4.67686 -6.38178,2.07862 -6.16172,-0.77948 h -7.702153 l -1.76049,-3.37774 -2.64074,-3.11792 -1.98055,-0.25982 -5.7216,0.51965 -4.40123,-0.25983 -5.72159,-2.33843 -4.18117,-11.17252 -3.30092,-10.393058 -2.64074,-10.652872 -1.54043,-19.486961 -0.22006,-11.172525 1.76049,-14.030609 7.04197,-15.329742 4.62129,-6.755479 18.2651,-10.9126965 z"
     id="path4-3" /><path
     style="fill:#3c3836;fill-opacity:1;stroke:#000000;stroke-width:1.40064;stroke-dasharray:none;stroke-opacity:1"
     d="m 65.199861,5.6951905 23.546573,7.5349565 0.660184,2.078609 1.980552,3.637565 3.741044,2.078609 3.9611,2.338437 1.760506,3.897393 2.64072,7.015305 1.76049,9.35374 0.88025,12.471655 1.10031,9.353739 -0.66019,7.534957 -2.86079,8.054612 0.44011,7.794784 v 10.393035 l -2.86079,8.574273 -4.621286,4.9367 -4.621289,3.37774 -6.161721,2.59827 -7.92221,4.67686 -6.381782,2.07862 -6.161718,-0.77948 h -7.702151 l -1.760491,-3.37774 -2.640738,-3.11792 -1.980551,-0.25982 -5.721598,0.51965 -4.401229,-0.25983 -5.721595,-2.33843 L 31.310402,104.68896 28.00948,94.295901 25.368744,83.643029 23.828315,64.156068 23.608253,52.983543 25.368744,38.952934 32.410709,23.623192 37.032,16.867713 55.297097,5.9550165 Z"
     id="path4" /><path
     style="fill:#fabd2f;fill-opacity:1;stroke:#282828;stroke-width:1.976;stroke-dasharray:none;stroke-opacity:1"
     d="m 49.155335,104.36244 c -1.356692,-0.13564 -2.505314,-0.54358 -2.505314,-0.88975 0,-0.17163 -0.242538,-0.31206 -0.538981,-0.31206 -0.485131,0 -0.580844,-0.39013 -0.957918,-3.904355 C 44.809156,96.050602 44.751596,89.21576 44.831447,61.061532 44.902295,36.063846 45.0197,26.6059 45.264499,26.161405 c 0.29906,-0.543006 0.546456,-0.628352 2.260693,-0.779878 3.311765,-0.292735 4.608447,-0.171179 5.987641,0.561305 0.683432,0.362967 2.436314,1.246506 3.895293,1.963418 9.095756,4.469475 11.353554,5.797538 19.431526,11.42988 0.984476,0.686418 2.386797,1.596309 3.116293,2.021979 0.729484,0.425672 2.321094,1.40878 3.536912,2.184686 1.215807,0.775906 3.35639,2.055847 4.75684,2.844314 6.508642,3.66443 6.651633,3.794093 6.821338,6.185437 0.05816,0.819736 -0.02819,0.939607 -0.925278,1.28473 -0.544184,0.209352 -1.273668,0.567738 -1.621076,0.796415 -0.347419,0.228675 -1.095885,0.60666 -1.663262,0.839963 -1.146772,0.471544 -7.396,3.689046 -12.821311,6.601224 -1.945301,1.044192 -3.934805,2.050658 -4.421139,2.236591 -0.836338,0.319752 -7.057371,3.515697 -9.284388,4.769694 -0.567377,0.319483 -1.562135,0.848926 -2.210576,1.176543 -0.648431,0.327616 -1.908451,0.987729 -2.800054,1.466919 -0.891591,0.479191 -2.346882,1.250717 -3.233973,1.714504 -0.88708,0.463786 -1.743926,0.91342 -1.904106,0.999184 -0.479317,0.256658 0.622752,1.008448 4.84334,3.303941 2.188463,1.19026 4.907463,2.695831 6.042227,3.34571 1.134753,0.64988 2.859005,1.515093 3.831651,1.922695 0.972656,0.407602 3.028477,1.318787 4.568509,2.024854 1.540033,0.706067 4.126401,1.876207 5.747488,2.600311 1.621086,0.724105 3.950636,1.801264 5.176791,2.393688 1.226155,0.592424 3.239521,1.460966 4.474132,1.930096 1.486996,0.565019 2.363359,1.048967 2.596105,1.433614 0.193243,0.319368 0.534135,0.851017 0.757555,1.181437 0.593979,0.878485 0.507868,1.245544 -0.478022,2.037764 -0.486324,0.390789 -0.884229,0.8482 -0.884229,1.016469 0,0.168268 -0.142111,0.305936 -0.315793,0.305936 -0.173693,0 -0.515965,0.153717 -0.76062,0.341593 -0.244654,0.187874 -0.586882,0.274164 -0.760519,0.191759 -0.173638,-0.08238 -0.473167,0.01556 -0.66563,0.21767 -0.315805,0.33166 -0.551758,0.293224 -2.419359,-0.394092 -1.138195,-0.418865 -4.110661,-1.70067 -6.605493,-2.848443 -8.3769,-3.853884 -12.187106,-5.579021 -14.164858,-6.413395 -1.081014,-0.456059 -2.871583,-1.340792 -3.97902,-1.966071 -4.820193,-2.721545 -7.72319,-4.293751 -7.928175,-4.293751 -0.302782,0 0.05559,11.054273 0.503489,15.528239 l 0.364909,3.645433 -0.940116,1.08991 c -0.517058,0.59946 -0.940106,1.17431 -0.940106,1.27746 0,0.18632 -1.402355,0.20051 -3.094793,0.0313 z M 60.70338,63.001207 c 3.595586,-1.875984 6.911439,-3.564014 7.368575,-3.751178 0.743052,-0.304232 4.726461,-2.369112 8.789187,-4.556054 0.810537,-0.436309 2.512811,-1.335809 3.782825,-1.998886 L 82.953086,51.489492 81.970313,51.02732 C 81.429785,50.773125 79.869778,49.845791 78.503617,48.966577 77.137456,48.087364 75.791401,47.266155 75.51238,47.141669 74.974892,46.90187 68.490057,42.634686 65.193342,40.351492 61.968916,38.118357 54.236012,33.884749 53.88036,34.157863 c -0.06339,0.04869 -0.21159,7.410932 -0.329317,16.360546 -0.183519,13.951974 -0.154933,16.245055 0.20044,16.082854 0.227966,-0.104051 3.356312,-1.72407 6.951897,-3.600056 z"
     id="path8" /></svg>
