<?xml version="1.0" encoding="UTF-8" standalone="no"?>
<!-- Created with Inkscape (http://www.inkscape.org/) -->

<svg
   width="1024mm"
   height="512mm"
   viewBox="0 0 1024 512"
   version="1.1"
   id="svg1"
   xml:space="preserve"
   inkscape:version="1.4.2 (ebf0e940, 2025-05-08)"
   sodipodi:docname="logo.svg"
   xmlns:inkscape="http://www.inkscape.org/namespaces/inkscape"
   xmlns:sodipodi="http://sodipodi.sourceforge.net/DTD/sodipodi-0.dtd"
   xmlns="http://www.w3.org/2000/svg"
   xmlns:svg="http://www.w3.org/2000/svg"><sodipodi:namedview
     id="namedview1"
     pagecolor="#fbf1c7"
     bordercolor="#000000"
     borderopacity="0.25"
     inkscape:showpageshadow="2"
     inkscape:pageopacity="0.0"
     inkscape:pagecheckerboard="0"
     inkscape:deskcolor="#d1d1d1"
     inkscape:document-units="mm"
     inkscape:zoom="0.089577866"
     inkscape:cx="5425.4474"
     inkscape:cy="3176.0078"
     inkscape:window-width="1440"
     inkscape:window-height="846"
     inkscape:window-x="209"
     inkscape:window-y="1105"
     inkscape:window-maximized="0"
     inkscape:current-layer="g5" /><defs
     id="defs1"><rect
       x="588.91064"
       y="552.45427"
       width="1783.5579"
       height="846.90959"
       id="rect2" /><rect
       x="645.7014"
       y="373.82712"
       width="1891.7918"
       height="713.66997"
       id="rect1" /><linearGradient
       id="swatch4"
       inkscape:swatch="solid"><stop
         style="stop-color:#000000;stop-opacity:1;"
         offset="0"
         id="stop4" /></linearGradient><inkscape:path-effect
       effect="spiro"
       id="path-effect3"
       is_visible="true"
       lpeversion="1" /><rect
       x="588.91064"
       y="552.45428"
       width="1783.5579"
       height="846.90961"
       id="rect2-9" /></defs><text
     xml:space="preserve"
     transform="scale(0.26458333)"
     id="text1"
     style="font-family:'Eagle Lake';-inkscape-font-specification:'Eagle Lake';text-align:start;writing-mode:lr-tb;direction:ltr;white-space:pre;shape-inside:url(#rect1);display:inline;fill:#3c3836;stroke:#282828;stroke-width:7.46835" /><g
     id="g2"
     transform="matrix(3.0649804,0,0,3.0649804,-29.42044,31.656323)"><path
       style="fill:#000000;fill-opacity:1;stroke:#000000;stroke-width:1.40064;stroke-dasharray:none;stroke-opacity:1"
       d="m 69.167276,7.7430615 23.54657,7.5349565 0.66019,2.078609 1.98055,3.637565 3.741048,2.078609 3.961106,2.338437 1.7605,3.897393 2.64073,7.015305 1.76049,9.35374 0.88025,12.471655 1.10031,9.353739 -0.66019,7.534957 -2.86079,8.054612 0.44011,7.794784 v 10.393037 l -2.8608,8.57427 -4.62129,4.9367 -4.621294,3.37774 -6.16172,2.59827 -7.92221,4.67686 -6.38178,2.07862 -6.16172,-0.77948 h -7.702153 l -1.76049,-3.37774 -2.64074,-3.11792 -1.98055,-0.25982 -5.7216,0.51965 -4.40123,-0.25983 -5.72159,-2.33843 -4.18117,-11.17252 -3.30092,-10.393058 -2.64074,-10.652872 -1.54043,-19.486961 -0.22006,-11.172525 1.76049,-14.030609 7.04197,-15.329742 4.62129,-6.755479 18.2651,-10.9126965 z"
       id="path4-3" /><path
       style="fill:#3c3836;fill-opacity:1;stroke:#000000;stroke-width:1.40064;stroke-dasharray:none;stroke-opacity:1"
       d="m 65.199861,5.6951905 23.546573,7.5349565 0.660184,2.078609 1.980552,3.637565 3.741044,2.078609 3.9611,2.338437 1.760506,3.897393 2.64072,7.015305 1.76049,9.35374 0.88025,12.471655 1.10031,9.353739 -0.66019,7.534957 -2.86079,8.054612 0.44011,7.794784 v 10.393035 l -2.86079,8.574273 -4.621286,4.9367 -4.621289,3.37774 -6.161721,2.59827 -7.92221,4.67686 -6.381782,2.07862 -6.161718,-0.77948 h -7.702151 l -1.760491,-3.37774 -2.640738,-3.11792 -1.980551,-0.25982 -5.721598,0.51965 -4.401229,-0.25983 -5.721595,-2.33843 L 31.310402,104.68896 28.00948,94.295901 25.368744,83.643029 23.828315,64.156068 23.608253,52.983543 25.368744,38.952934 32.410709,23.623192 37.032,16.867713 55.297097,5.9550165 Z"
       id="path4" /><path
       style="fill:#fabd2f;fill-opacity:1;stroke:#282828;stroke-width:1.976;stroke-dasharray:none;stroke-opacity:1"
       d="m 49.155335,104.36244 c -1.356692,-0.13564 -2.505314,-0.54358 -2.505314,-0.88975 0,-0.17163 -0.242538,-0.31206 -0.538981,-0.31206 -0.485131,0 -0.580844,-0.39013 -0.957918,-3.904355 C 44.809156,96.050602 44.751596,89.21576 44.831447,61.061532 44.902295,36.063846 45.0197,26.6059 45.264499,26.161405 c 0.29906,-0.543006 0.546456,-0.628352 2.260693,-0.779878 3.311765,-0.292735 4.608447,-0.171179 5.987641,0.561305 0.683432,0.362967 2.436314,1.246506 3.895293,1.963418 9.095756,4.469475 11.353554,5.797538 19.431526,11.42988 0.984476,0.686418 2.386797,1.596309 3.116293,2.021979 0.729484,0.425672 2.321094,1.40878 3.536912,2.184686 1.215807,0.775906 3.35639,2.055847 4.75684,2.844314 6.508642,3.66443 6.651633,3.794093 6.821338,6.185437 0.05816,0.819736 -0.02819,0.939607 -0.925278,1.28473 -0.544184,0.209352 -1.273668,0.567738 -1.621076,0.796415 -0.347419,0.228675 -1.095885,0.60666 -1.663262,0.839963 -1.146772,0.471544 -7.396,3.689046 -12.821311,6.601224 -1.945301,1.044192 -3.934805,2.050658 -4.421139,2.236591 -0.836338,0.319752 -7.057371,3.515697 -9.284388,4.769694 -0.567377,0.319483 -1.562135,0.848926 -2.210576,1.176543 -0.648431,0.327616 -1.908451,0.987729 -2.800054,1.466919 -0.891591,0.479191 -2.346882,1.250717 -3.233973,1.714504 -0.88708,0.463786 -1.743926,0.91342 -1.904106,0.999184 -0.479317,0.256658 0.622752,1.008448 4.84334,3.303941 2.188463,1.19026 4.907463,2.695831 6.042227,3.34571 1.134753,0.64988 2.859005,1.515093 3.831651,1.922695 0.972656,0.407602 3.028477,1.318787 4.568509,2.024854 1.540033,0.706067 4.126401,1.876207 5.747488,2.600311 1.621086,0.724105 3.950636,1.801264 5.176791,2.393688 1.226155,0.592424 3.239521,1.460966 4.474132,1.930096 1.486996,0.565019 2.363359,1.048967 2.596105,1.433614 0.193243,0.319368 0.534135,0.851017 0.757555,1.181437 0.593979,0.878485 0.507868,1.245544 -0.478022,2.037764 -0.486324,0.390789 -0.884229,0.8482 -0.884229,1.016469 0,0.168268 -0.142111,0.305936 -0.315793,0.305936 -0.173693,0 -0.515965,0.153717 -0.76062,0.341593 -0.244654,0.187874 -0.586882,0.274164 -0.760519,0.191759 -0.173638,-0.08238 -0.473167,0.01556 -0.66563,0.21767 -0.315805,0.33166 -0.551758,0.293224 -2.419359,-0.394092 -1.138195,-0.418865 -4.110661,-1.70067 -6.605493,-2.848443 -8.3769,-3.853884 -12.187106,-5.579021 -14.164858,-6.413395 -1.081014,-0.456059 -2.871583,-1.340792 -3.97902,-1.966071 -4.820193,-2.721545 -7.72319,-4.293751 -7.928175,-4.293751 -0.302782,0 0.05559,11.054273 0.503489,15.528239 l 0.364909,3.645433 -0.940116,1.08991 c -0.517058,0.59946 -0.940106,1.17431 -0.940106,1.27746 0,0.18632 -1.402355,0.20051 -3.094793,0.0313 z M 60.70338,63.001207 c 3.595586,-1.875984 6.911439,-3.564014 7.368575,-3.751178 0.743052,-0.304232 4.726461,-2.369112 8.789187,-4.556054 0.810537,-0.436309 2.512811,-1.335809 3.782825,-1.998886 L 82.953086,51.489492 81.970313,51.02732 C 81.429785,50.773125 79.869778,49.845791 78.503617,48.966577 77.137456,48.087364 75.791401,47.266155 75.51238,47.141669 74.974892,46.90187 68.490057,42.634686 65.193342,40.351492 61.968916,38.118357 54.236012,33.884749 53.88036,34.157863 c -0.06339,0.04869 -0.21159,7.410932 -0.329317,16.360546 -0.183519,13.951974 -0.154933,16.245055 0.20044,16.082854 0.227966,-0.104051 3.356312,-1.72407 6.951897,-3.600056 z"
       id="path8" /></g><g
     id="g5"
     transform="matrix(1.55145,0,0,1.3823816,-197.97667,-45.798772)"><path
       style="font-size:400px;line-height:0px;font-family:Relic;-inkscape-font-specification:'Relic, Normal';letter-spacing:-1.33611px;white-space:pre;fill:#3c3836;fill-opacity:1;stroke-width:1.20493"
       d="m 576.31796,286.36742 v -0.62794 l 2.11652,-1.72684 c 2.27933,-1.8838 4.01595,-3.45365 5.20988,-4.70953 1.30247,-1.25587 2.17079,-2.56408 2.60495,-3.9246 0.86831,-2.40711 1.62809,-5.54679 2.27933,-9.41908 0.65123,-3.97695 0.97685,-10.77961 0.97685,-20.40798 v -22.13482 c -0.096,-0.13949 -0.32562,-16.37871 -0.97685,-20.251 -0.65124,-3.97695 -1.41102,-7.16897 -2.27933,-9.57606 -0.75977,-2.51175 -3.31045,-5.3898 -7.65202,-8.63415 l -2.27933,-1.72683 v -0.62793 h 42.03092 v 0.62793 l -2.11651,1.72683 c -2.27933,1.88382 -4.07023,3.45367 -5.3727,4.70954 -1.19393,1.25588 -2.00797,2.56409 -2.44213,3.92461 -0.86831,2.40709 -1.62809,5.59911 -2.27933,9.57606 -0.65123,3.87229 -0.97684,10.62261 -0.97684,20.251 v 25.71381 l -4.30647,5.03569 4.9796,5.82831 c 0.65124,3.87229 1.71473,12.97696 2.58304,15.38407 0.75978,2.51175 3.31045,5.3898 7.65202,8.63413 l 2.27932,1.72684 v 0.62794 z"
       id="text2"
       aria-label="ELIQ"
       sodipodi:nodetypes="ccccccsccccccccccccscccccccc" /><path
       d="m 344.7633,286.04278 2.11651,-1.72683 c 2.27933,-1.88381 4.01596,-3.45365 5.20989,-4.70953 1.30247,-1.25587 2.17078,-2.56408 2.60494,-3.92461 0.86832,-2.4071 1.6281,-5.54679 2.27933,-9.41908 0.65124,-3.97695 0.97686,-10.7796 0.97686,-20.40797 l 4.94945,-13.48035 -4.94945,-8.38665 c 0,0 -0.32562,-16.64654 -0.97686,-20.51883 -0.65123,-3.97695 -1.41101,-7.16896 -2.27933,-9.57605 -0.75977,-2.51175 -3.31044,-5.38981 -7.65201,-8.63415 l -2.27933,-1.72684 v -0.62792 h 76.84581 l 21.47316,-0.24746 c 0,0 -2.83853,24.01908 -9.75092,20.02749 -4.01595,-2.40709 -7.16358,-4.08159 -9.44291,-5.02349 -2.27933,-0.94191 -4.72146,-1.51752 -7.32641,-1.72684 -2.60493,-0.31396 -6.67516,-0.47095 -12.21067,-0.47095 h -18.72302 v 32.33881 h 11.39662 c 4.23304,0 7.38068,-0.26164 9.44293,-0.78492 2.17078,-0.62794 4.72144,-1.93614 7.65201,-3.92462 2.17079,-1.46518 3.52753,-2.45942 4.07022,-2.9827 0.65124,-0.62794 1.68237,-1.93614 3.09337,-3.92462 l 4.23303,-6.12238 9.54397,21.9621 -8.89273,26.07516 -4.88427,-6.12241 c -1.411,-1.98846 -2.44213,-3.24434 -3.09337,-3.76762 -0.54269,-0.62795 -1.89943,-1.67451 -4.07022,-3.13969 -0.87406,-0.62429 -2.12271,-1.51713 -3.04024,-1.94554 -0.0136,-0.006 -0.95563,-0.56633 -0.95563,-0.56633 l -1.4514,-0.52321 c 0,0 -1.20477,-0.50103 -2.04194,-0.88954 -1.9537,-0.52328 -5.15561,-0.78492 -9.60573,-0.78492 h -1.64633 l -3.86815,-2.6579 -3.9471,2.6579 h -1.93504 v 2.0408 c 0,10.77961 0.16281,18.10555 0.48843,21.97783 0.32561,3.87229 1.19393,6.4887 2.60494,7.84923 1.51955,1.25588 4.2873,1.88382 8.30325,1.88382 h 14.00157 c 6.94651,0 12.21066,-0.26165 15.79246,-0.78493 3.58181,-0.62794 7.81483,-1.98847 12.6991,-4.08159 4.01595,-1.77917 6.78371,-3.08736 8.30326,-3.92462 1.51955,-0.94191 2.93055,-2.14546 4.23303,-3.61064 1.30247,-1.56985 3.47326,-4.50023 6.51235,-8.79114 l -0.1628,33.25665 -25.72382,0.49502 H 344.7633 Z"
       style="font-size:400px;line-height:0px;font-family:Relic;-inkscape-font-specification:'Relic, Normal';letter-spacing:-1.33611px;white-space:pre;fill:#3c3836;fill-opacity:1;stroke-width:1.20493"
       id="path1"
       sodipodi:nodetypes="cccccsccccccccccscsccsccscccccccscccsccccsscssccccccccc" /><path
       d="m 465.41333,285.99325 v -0.62794 l 2.11651,-1.72684 c 2.27933,-1.8838 4.01596,-3.45365 5.20989,-4.70953 1.30247,-1.25587 2.17078,-2.56408 2.60494,-3.9246 0.86831,-2.40711 1.62809,-5.54679 2.27932,-9.41908 0.65124,-3.97695 0.97686,-10.77961 0.97686,-20.40798 v -22.13482 c -0.85224,-1.82415 -0.32562,-16.37871 -0.97686,-20.251 -0.65123,-3.97695 -1.41101,-7.16897 -2.27932,-9.57606 -0.75978,-2.51175 -3.31045,-5.3898 -7.65202,-8.63415 l -2.27932,-1.72683 v -0.62793 h 54.05255 v 0.62793 l -2.11652,1.72683 c -2.27932,1.88382 -4.07022,3.45367 -5.37269,4.70954 -1.19393,1.25588 -2.00797,2.56409 -2.44214,3.92461 -0.86831,2.40709 -2.39971,10.65075 -3.05094,14.6277 l -3.64655,3.6971 c 0,0 3.27672,6.64305 3.27672,6.69914 l 0.1646,55.19515 h 13.35033 c 6.94651,0 12.21066,-0.26164 15.79247,-0.78493 3.5818,-0.62794 7.81482,-1.98846 12.69909,-4.08159 4.01595,-1.77916 6.7837,-3.08736 8.30325,-3.92462 9.36173,-7.72441 7.8709,-4.24658 15.31432,-14.83508 l -4.24331,35.8387 -21.00235,0.34628 h -19.77859 l -8.5175,-4.32441 -8.51751,4.32441 z"
       style="font-size:400px;line-height:0px;font-family:Relic;-inkscape-font-specification:'Relic, Normal';letter-spacing:-1.33611px;white-space:pre;fill:#3c3836;fill-opacity:1;stroke-width:1.20493"
       id="path1-7"
       sodipodi:nodetypes="ccccccssccccccccccccccscccccccccc" /><path
       d="m 676.66691,280.6931 c -1.2043,-0.27031 -7.35141,-1.50231 -9.41515,-2.19414 -9.48383,-3.17928 -25.99706,-12.83475 -33.05129,-22.28179 -2.43271,-3.30133 -6.63639,-7.05955 -8.03873,-10.72942 -0.4016,-1.05096 4.47376,-12.05494 4.09177,-12.3799 0,0 -4.64445,-8.97095 -4.54466,-9.40397 1.3444,-5.83353 4.89999,-19.15625 8.166,-24.00113 5.64405,-8.47717 13.62168,-14.96586 23.93292,-19.46609 10.31123,-4.60487 22.30483,-6.90732 35.98077,-6.90732 13.78449,0 25.99516,2.30245 36.63201,6.90732 3.36917,1.41103 9.38725,4.77325 9.38725,4.77325 l 1.22726,5.22047 4.32756,-0.71595 c 0,0 8.13995,7.17173 9.96769,9.71736 5.86112,8.05854 8.79169,17.26829 8.79169,27.62928 0,11.5122 -3.47326,21.7162 -10.41978,30.61198 -3.70125,4.68411 -12.42431,10.8432 -25.56332,16.14546 -10.81025,4.36249 -28.6179,4.38895 -34.19569,6.34467 3.47326,9.73304 56.94719,-5.58455 65.5218,-3.5961 -3.89036,3.81757 -34.39577,19.42119 -54.70741,23.24225 -14.74198,2.77328 -19.50547,-4.16997 -27.1421,-9.33589 -1.8943,-1.28143 4.42129,-8.37505 2.62338,-8.7786 z m 23.14556,-12.07415 c 6.40382,0 12.10214,-1.51752 17.09494,-4.55256 5.10134,-3.03503 9.06303,-7.22128 11.88505,-12.55875 2.82202,-5.44214 4.23304,-11.61685 4.23304,-18.52417 0,-9.00045 -1.84517,-17.05899 -5.53551,-24.17562 -3.5818,-7.11664 -8.62888,-12.66341 -15.14123,-16.64036 -6.51236,-3.97695 -13.9473,-5.96542 -22.30482,-5.96542 -6.51236,0 -12.31922,1.56985 -17.42056,4.70954 -5.10135,3.03504 -9.1173,7.32595 -12.04785,12.87273 -2.82203,5.44213 -4.23304,11.66918 -4.23304,18.68116 0,8.89578 1.84517,16.84967 5.5355,23.86165 3.69034,7.01198 8.79168,12.50643 15.30404,16.48337 6.6209,3.87229 14.16437,5.80843 22.63044,5.80843 z"
       style="font-size:400px;line-height:0px;font-family:Relic;-inkscape-font-specification:'Relic, Normal';letter-spacing:-1.33611px;white-space:pre;fill:#3c3836;fill-opacity:1;stroke-width:1.20493"
       id="path1-0"
       sodipodi:nodetypes="sscscsccscccccscsccsssssccscssccsscs" /></g><text
     xml:space="preserve"
     style="font-style:normal;font-variant:normal;font-weight:normal;font-stretch:normal;font-size:90.1885px;line-height:0px;font-family:'Google Sans Code';-inkscape-font-specification:'Google Sans Code, @wght=300';font-variant-ligatures:normal;font-variant-caps:normal;font-variant-numeric:normal;font-variant-east-asian:normal;font-variation-settings:'wght' 300;text-align:start;letter-spacing:0px;writing-mode:lr-tb;direction:ltr;text-anchor:start;fill:#3c3836;stroke-width:0.112735"
     x="614.95367"
     y="450.36172"
     id="text3"><tspan
       sodipodi:role="line"
       id="tspan3"
       x="614.95367"
       y="450.36172"
       style="font-style:normal;font-variant:normal;font-weight:normal;font-stretch:normal;font-size:90.1885px;font-family:'Google Sans Code';-inkscape-font-specification:'Google Sans Code, @wght=300';font-variant-ligatures:normal;font-variant-caps:normal;font-variant-numeric:normal;font-variant-east-asian:normal;font-variation-settings:'wght' 300;stroke-width:0.112735">studios</tspan><tspan
       sodipodi:role="line"
       id="tspan4"
       x="614.95367"
       y="450.36172"
       style="font-style:normal;font-variant:normal;font-weight:normal;font-stretch:normal;font-size:90.1885px;font-family:'Google Sans Code';-inkscape-font-specification:'Google Sans Code, @wght=300';font-variant-ligatures:normal;font-variant-caps:normal;font-variant-numeric:normal;font-variant-east-asian:normal;font-variation-settings:'wght' 300;stroke-width:0.112735" /></text></svg>
